<?xml version="1.0" encoding="UTF-8"?>
<svg id="Capa_1" data-name="Capa 1" xmlns="http://www.w3.org/2000/svg" xmlns:xlink="http://www.w3.org/1999/xlink" version="1.1" viewBox="0 0 341.2 24.2">
  <defs>
    <style>
      .cls-1 {
        fill: #e0091d;
      }

      .cls-1, .cls-2, .cls-3, .cls-4, .cls-5, .cls-6, .cls-7 {
        stroke-width: 0px;
      }

      .cls-8 {
        clip-path: url(#clippath);
      }

      .cls-2 {
        fill: none;
      }

      .cls-9 {
        clip-path: url(#clippath-1);
      }

      .cls-3 {
        fill: #222c56;
      }

      .cls-4 {
        fill: #dc1d1a;
      }

      .cls-5 {
        fill: #e0061c;
      }

      .cls-6 {
        fill: #fff;
      }

      .cls-7 {
        fill: #a3a1a1;
      }
    </style>
    <clipPath id="clippath">
      <polyline class="cls-2" points="0 23.4 35.3 23.4 35.3 .8 0 .8"/>
    </clipPath>
    <clipPath id="clippath-1">
      <polyline class="cls-2" points="0 23.4 35.3 23.4 35.3 .8 0 .8"/>
    </clipPath>
  </defs>
  <g>
    <path class="cls-3" d="M341.2,22.1H103.4L83.4,2.1h237.7l20.1,20Z"/>
    <g>
      <path class="cls-7" d="M112.4,5h9.6l-.6,3.9h-4.4l-.3,1.4h4l-.6,3.7h-4l-.2,1.4h4.5l-.6,3.9h-9.7s2.3-14.3,2.3-14.3Z"/>
      <path class="cls-7" d="M138.3,5l-5.6,6.7,3.9,7.6h-5.9l-1.2-3c0-.3,0-.6-.2-.9h-.2c-.2.3-.3.7-.6,1l-2,2.9h-5.9l6.4-7.6-3.4-6.7h5.9l.7,2c0,.4.2.8.3,1.2h0c.2-.4.4-.8.6-1.2l1.3-2h5.8,0Z"/>
      <path class="cls-7" d="M140,5h6.6c3.3,0,5.5,1.7,5,5.2-.3,2.8-2.7,4.8-5.5,4.7h-2.7l-.7,4.3h-5s2.3-14.2,2.3-14.2ZM144,11.4h.5c.9,0,1.9-.2,2.1-1.3s-.9-1.2-1.7-1.2h-.5l-.4,2.5Z"/>
      <path class="cls-7" d="M153.7,5h9.6l-.6,3.9h-4.4l-.2,1.4h4l-.6,3.7h-4l-.2,1.4h4.5l-.6,3.9h-9.8s2.3-14.3,2.3-14.3Z"/>
      <path class="cls-7" d="M165.6,5h6.3c3.2,0,5.7,1.4,5.2,5-.3,2.2-1.3,3.1-3.4,3.7h0c.3.3.5.6.7,1l2.4,4.6h-6l-1.6-4.6h0l-.7,4.6h-5.1s2.3-14.3,2.3-14.3ZM169.7,11.3h.4c.9,0,1.7-.1,1.9-1.2.2-1.1-.6-1.2-1.5-1.2h-.4s-.4,2.4-.4,2.4Z"/>
      <path class="cls-7" d="M178.6,5h10.9l-.8,4.7h-2.8c0-.1-1.6,9.7-1.6,9.7h-5.2l1.6-9.8h-2.9c0,.1.8-4.6.8-4.6Z"/>
      <path class="cls-6" d="M190.2,14.2l.2.2c.8.8,1.9,1.3,3,1.3s1.4-.2,1.5-.9c.1-.6-.6-.7-1-.8l-1-.2c-2-.4-3.5-1.6-3.1-3.8.5-3.4,3.9-5.3,7-5.3s3.1.4,4.3,1.2l-2,3.7c-.8-.7-1.8-1-2.8-1.1-.5,0-1.1.2-1.2.8-.1.5.5.6.9.7l1.1.3c2.1.5,3.5,1.7,3.1,4.1-.5,3.4-3.9,5.1-7,5.1s-3.7-.5-5.3-1.3c0,0,2.3-4,2.3-4Z"/>
      <path class="cls-6" d="M203.3,5h9.6l-.6,3.9h-4.4l-.2,1.4h4l-.6,3.7h-4l-.2,1.4h4.5l-.6,3.9h-9.8s2.3-14.3,2.3-14.3Z"/>
      <path class="cls-6" d="M215.2,5h6.3c3.2,0,5.7,1.4,5.2,5-.3,2.2-1.3,3.1-3.4,3.7h0c.3.3.5.6.7,1l2.4,4.6h-6l-1.6-4.6h-.1l-.7,4.6h-5.1l2.3-14.3h0ZM219.3,11.3h.4c.9,0,1.7-.1,1.9-1.2.2-1.1-.6-1.2-1.5-1.2h-.4s-.4,2.4-.4,2.4Z"/>
      <path class="cls-6" d="M243.4,5l-7.8,14.3h-4.4l-3.3-14.3h5.4l.9,6.5c.1.7.1,1.4,0,2.1h.1c.1-.7.4-1.4.7-2.1l2.9-6.5h5.5Z"/>
      <path class="cls-6" d="M244.6,5h5.2l-2.3,14.3h-5.2s2.3-14.3,2.3-14.3Z"/>
      <path class="cls-6" d="M261.9,10.8c-.7-.9-1.7-1.4-2.8-1.4-1.6,0-3,1.2-3.3,2.8-.2,1.3.6,2.5,1.9,2.7h.5c1.2,0,2.3-.5,3.2-1.3l-1,5.3c-1.2.4-2.5.6-3.8.6-3.3.2-6.1-2.4-6.2-5.7,0-.5,0-1.1.1-1.6.7-4.2,4.3-7.4,8.6-7.5,1.2,0,2.3.2,3.4.6l-.6,5.5h0Z"/>
      <path class="cls-6" d="M264.5,5h9.6l-.6,3.9h-4.4l-.2,1.4h4l-.6,3.7h-4l-.2,1.4h4.5l-.6,3.9h-9.8s2.3-14.3,2.3-14.3Z"/>
      <path class="cls-7" d="M286.1,10.8c-.7-.9-1.7-1.4-2.8-1.4-1.6,0-3,1.2-3.3,2.8-.2,1.3.6,2.5,1.9,2.7h.5c1.2,0,2.3-.5,3.2-1.3l-1,5.3c-1.2.4-2.5.6-3.8.6-3.3.2-6.1-2.4-6.2-5.7,0-.5,0-1.1.1-1.6.7-4.2,4.3-7.4,8.6-7.5,1.2,0,2.3.2,3.4.6l-.6,5.5h0Z"/>
      <path class="cls-7" d="M290.8,19.3h-5.5l7.2-14.3h5.7l2.8,14.3h-5.5l-.2-1.8h-3.9l-.6,1.8ZM295.1,14.1l-.2-2.5c-.1-.6,0-1.2,0-1.8h-.2l-1.6,4.4h2Z"/>
      <path class="cls-7" d="M304.4,5h6.3c3.2,0,5.7,1.4,5.2,5-.3,2.2-1.3,3.1-3.4,3.7h0c.3.3.5.6.7,1l2.4,4.6h-6l-1.5-4.6h-.1l-.7,4.6h-5.1s2.2-14.3,2.2-14.3ZM308.5,11.3h.4c.9,0,1.7-.1,1.9-1.2.2-1.1-.6-1.2-1.5-1.2h-.4s-.4,2.4-.4,2.4Z"/>
    </g>
    <path class="cls-4" d="M80.4,2.1h-10l20,20h9.9L80.4,2.1Z"/>
    <path class="cls-4" d="M68.3,2.1h-6.7l20,20h6.6L68.3,2.1Z"/>
    <path class="cls-4" d="M59.5,2.1h-4.5l20.1,20h4.4L59.5,2.1Z"/>
  </g>
  <g>
    <g class="cls-8">
      <polyline class="cls-6" points="0 23.4 35.3 23.4 35.3 .8 0 .8"/>
    </g>
    <rect class="cls-3" x="1.1" y="1.9" width="33.1" height="20.4"/>
    <g class="cls-9">
      <polyline class="cls-6" points="22.4 3.4 13.4 3.4 14.6 6.6 23.7 6.6"/>
    </g>
    <path class="cls-6" d="M17.6,20.1l-2.8-7.6c-.9-2.5-3.4-4.4-6.2-4.4S2,11,2,14.7s2.9,6.6,6.6,6.6,3.8-.9,5-2.4l.4,1.2"/>
    <path class="cls-1" d="M8.6,18c1.8,0,3.3-1.5,3.3-3.3s-1.5-3.3-3.3-3.3-3.3,1.5-3.3,3.3,1.5,3.3,3.3,3.3"/>
    <path class="cls-6" d="M30.7,12.5c0-.1-.1-.2-.1-.4l-3.3-8.8h-3.5l1.8,4.9c-.4,0-.7-.1-1.1-.1-3.7,0-6.6,2.9-6.6,6.6s2.9,6.6,6.6,6.6,3.8-.9,5-2.4l.4,1.2h3.5"/>
    <path class="cls-5" d="M24.5,18c1.8,0,3.3-1.5,3.3-3.3s-1.5-3.3-3.3-3.3-3.3,1.5-3.3,3.3,1.5,3.3,3.3,3.3"/>
  </g>
</svg>